<mxfile host="app.diagrams.net" agent="Mozilla/5.0 (Windows NT 10.0; Win64; x64) AppleWebKit/537.36 (KHTML, like Gecko) Chrome/138.0.0.0 Safari/537.36 OPR/122.0.0.0 (Edition ms_store)" version="28.2.5" pages="7">
  <diagram name="P치gina-1" id="cen8zj9BjygT-g0L7lG0">
    <mxGraphModel dx="1684" dy="1115" grid="1" gridSize="10" guides="1" tooltips="1" connect="1" arrows="1" fold="1" page="1" pageScale="1" pageWidth="827" pageHeight="1169" math="0" shadow="0">
      <root>
        <mxCell id="0" />
        <mxCell id="1" parent="0" />
        <mxCell id="rh1283ys4lGFoWlDzSLO-1" value="COMPRA" style="rhombus;whiteSpace=wrap;html=1;" vertex="1" parent="1">
          <mxGeometry x="340" y="190" width="80" height="80" as="geometry" />
        </mxCell>
        <mxCell id="rh1283ys4lGFoWlDzSLO-2" value="CLIENTES" style="rounded=0;whiteSpace=wrap;html=1;" vertex="1" parent="1">
          <mxGeometry x="140" y="200" width="120" height="60" as="geometry" />
        </mxCell>
        <mxCell id="rh1283ys4lGFoWlDzSLO-3" value="PRODUCTOS" style="rounded=0;whiteSpace=wrap;html=1;" vertex="1" parent="1">
          <mxGeometry x="490" y="200" width="120" height="60" as="geometry" />
        </mxCell>
        <mxCell id="rh1283ys4lGFoWlDzSLO-4" value="Apellidos" style="ellipse;whiteSpace=wrap;html=1;" vertex="1" parent="1">
          <mxGeometry x="140" y="70" width="120" height="80" as="geometry" />
        </mxCell>
        <mxCell id="rh1283ys4lGFoWlDzSLO-5" value="Nombre" style="ellipse;whiteSpace=wrap;html=1;" vertex="1" parent="1">
          <mxGeometry x="-10" y="70" width="120" height="80" as="geometry" />
        </mxCell>
        <mxCell id="rh1283ys4lGFoWlDzSLO-6" value="&lt;u&gt;ID&lt;/u&gt;" style="ellipse;whiteSpace=wrap;html=1;" vertex="1" parent="1">
          <mxGeometry x="-10" y="190" width="120" height="80" as="geometry" />
        </mxCell>
        <mxCell id="rh1283ys4lGFoWlDzSLO-7" value="Direcci칩n" style="ellipse;whiteSpace=wrap;html=1;" vertex="1" parent="1">
          <mxGeometry x="-10" y="310" width="120" height="80" as="geometry" />
        </mxCell>
        <mxCell id="rh1283ys4lGFoWlDzSLO-8" value="Fecha&lt;div&gt;nacimeinto&lt;/div&gt;" style="ellipse;whiteSpace=wrap;html=1;" vertex="1" parent="1">
          <mxGeometry x="140" y="310" width="120" height="80" as="geometry" />
        </mxCell>
        <mxCell id="rh1283ys4lGFoWlDzSLO-9" value="Nombre" style="ellipse;whiteSpace=wrap;html=1;" vertex="1" parent="1">
          <mxGeometry x="490" y="50" width="120" height="80" as="geometry" />
        </mxCell>
        <mxCell id="rh1283ys4lGFoWlDzSLO-10" value="&lt;u&gt;C칩digo&lt;/u&gt;" style="ellipse;whiteSpace=wrap;html=1;" vertex="1" parent="1">
          <mxGeometry x="670" y="50" width="120" height="80" as="geometry" />
        </mxCell>
        <mxCell id="rh1283ys4lGFoWlDzSLO-11" value="Precio" style="ellipse;whiteSpace=wrap;html=1;" vertex="1" parent="1">
          <mxGeometry x="670" y="190" width="120" height="80" as="geometry" />
        </mxCell>
        <mxCell id="rh1283ys4lGFoWlDzSLO-12" value="PROPORCIONAN" style="rhombus;whiteSpace=wrap;html=1;" vertex="1" parent="1">
          <mxGeometry x="465" y="340" width="170" height="80" as="geometry" />
        </mxCell>
        <mxCell id="rh1283ys4lGFoWlDzSLO-13" value="PROVEEDOR" style="rounded=0;whiteSpace=wrap;html=1;" vertex="1" parent="1">
          <mxGeometry x="490" y="490" width="120" height="60" as="geometry" />
        </mxCell>
        <mxCell id="rh1283ys4lGFoWlDzSLO-14" value="Nombre" style="ellipse;whiteSpace=wrap;html=1;" vertex="1" parent="1">
          <mxGeometry x="490" y="600" width="120" height="80" as="geometry" />
        </mxCell>
        <mxCell id="rh1283ys4lGFoWlDzSLO-15" value="Direcci칩n" style="ellipse;whiteSpace=wrap;html=1;" vertex="1" parent="1">
          <mxGeometry x="320" y="545" width="120" height="80" as="geometry" />
        </mxCell>
        <mxCell id="rh1283ys4lGFoWlDzSLO-16" value="&lt;u&gt;NIF&lt;/u&gt;" style="ellipse;whiteSpace=wrap;html=1;" vertex="1" parent="1">
          <mxGeometry x="670" y="545" width="120" height="80" as="geometry" />
        </mxCell>
        <mxCell id="rh1283ys4lGFoWlDzSLO-17" value="" style="endArrow=none;html=1;rounded=0;fontSize=12;startSize=8;endSize=8;curved=1;entryX=0;entryY=0.5;entryDx=0;entryDy=0;exitX=1;exitY=0.5;exitDx=0;exitDy=0;" edge="1" parent="1" source="rh1283ys4lGFoWlDzSLO-2" target="rh1283ys4lGFoWlDzSLO-1">
          <mxGeometry width="50" height="50" relative="1" as="geometry">
            <mxPoint x="280" y="250" as="sourcePoint" />
            <mxPoint x="330" y="200" as="targetPoint" />
            <Array as="points" />
          </mxGeometry>
        </mxCell>
        <mxCell id="rh1283ys4lGFoWlDzSLO-18" value="" style="endArrow=none;html=1;rounded=0;fontSize=12;startSize=8;endSize=8;curved=1;entryX=0;entryY=0.5;entryDx=0;entryDy=0;exitX=1;exitY=0.5;exitDx=0;exitDy=0;" edge="1" parent="1" source="rh1283ys4lGFoWlDzSLO-1" target="rh1283ys4lGFoWlDzSLO-3">
          <mxGeometry width="50" height="50" relative="1" as="geometry">
            <mxPoint x="430" y="250" as="sourcePoint" />
            <mxPoint x="480" y="200" as="targetPoint" />
          </mxGeometry>
        </mxCell>
        <mxCell id="rh1283ys4lGFoWlDzSLO-19" value="" style="endArrow=classic;html=1;rounded=0;fontSize=12;startSize=8;endSize=8;curved=1;entryX=0.5;entryY=1;entryDx=0;entryDy=0;exitX=0.5;exitY=0;exitDx=0;exitDy=0;" edge="1" parent="1" source="rh1283ys4lGFoWlDzSLO-2" target="rh1283ys4lGFoWlDzSLO-4">
          <mxGeometry width="50" height="50" relative="1" as="geometry">
            <mxPoint x="190" y="190" as="sourcePoint" />
            <mxPoint x="240" y="140" as="targetPoint" />
          </mxGeometry>
        </mxCell>
        <mxCell id="rh1283ys4lGFoWlDzSLO-20" value="" style="endArrow=classic;html=1;rounded=0;fontSize=12;startSize=8;endSize=8;curved=1;entryX=1;entryY=1;entryDx=0;entryDy=0;exitX=0;exitY=0;exitDx=0;exitDy=0;" edge="1" parent="1" source="rh1283ys4lGFoWlDzSLO-2" target="rh1283ys4lGFoWlDzSLO-5">
          <mxGeometry width="50" height="50" relative="1" as="geometry">
            <mxPoint x="130" y="190" as="sourcePoint" />
            <mxPoint x="180" y="140" as="targetPoint" />
          </mxGeometry>
        </mxCell>
        <mxCell id="rh1283ys4lGFoWlDzSLO-21" value="" style="endArrow=classic;html=1;rounded=0;fontSize=12;startSize=8;endSize=8;curved=1;exitX=0;exitY=0.5;exitDx=0;exitDy=0;entryX=1;entryY=0.5;entryDx=0;entryDy=0;" edge="1" parent="1" source="rh1283ys4lGFoWlDzSLO-2" target="rh1283ys4lGFoWlDzSLO-6">
          <mxGeometry width="50" height="50" relative="1" as="geometry">
            <mxPoint x="110" y="270" as="sourcePoint" />
            <mxPoint x="160" y="220" as="targetPoint" />
          </mxGeometry>
        </mxCell>
        <mxCell id="rh1283ys4lGFoWlDzSLO-22" value="" style="endArrow=classic;html=1;rounded=0;fontSize=12;startSize=8;endSize=8;curved=1;entryX=1;entryY=0;entryDx=0;entryDy=0;exitX=0;exitY=1;exitDx=0;exitDy=0;" edge="1" parent="1" source="rh1283ys4lGFoWlDzSLO-2" target="rh1283ys4lGFoWlDzSLO-7">
          <mxGeometry width="50" height="50" relative="1" as="geometry">
            <mxPoint x="110" y="320" as="sourcePoint" />
            <mxPoint x="160" y="270" as="targetPoint" />
          </mxGeometry>
        </mxCell>
        <mxCell id="rh1283ys4lGFoWlDzSLO-23" value="" style="endArrow=classic;html=1;rounded=0;fontSize=12;startSize=8;endSize=8;curved=1;exitX=0.5;exitY=1;exitDx=0;exitDy=0;entryX=0.5;entryY=0;entryDx=0;entryDy=0;" edge="1" parent="1" source="rh1283ys4lGFoWlDzSLO-2" target="rh1283ys4lGFoWlDzSLO-8">
          <mxGeometry width="50" height="50" relative="1" as="geometry">
            <mxPoint x="200" y="310" as="sourcePoint" />
            <mxPoint x="250" y="260" as="targetPoint" />
          </mxGeometry>
        </mxCell>
        <mxCell id="rh1283ys4lGFoWlDzSLO-24" value="" style="endArrow=classic;html=1;rounded=0;fontSize=12;startSize=8;endSize=8;curved=1;entryX=0.5;entryY=1;entryDx=0;entryDy=0;exitX=0.5;exitY=0;exitDx=0;exitDy=0;" edge="1" parent="1" source="rh1283ys4lGFoWlDzSLO-3" target="rh1283ys4lGFoWlDzSLO-9">
          <mxGeometry width="50" height="50" relative="1" as="geometry">
            <mxPoint x="530" y="190" as="sourcePoint" />
            <mxPoint x="580" y="140" as="targetPoint" />
          </mxGeometry>
        </mxCell>
        <mxCell id="rh1283ys4lGFoWlDzSLO-25" value="" style="endArrow=classic;html=1;rounded=0;fontSize=12;startSize=8;endSize=8;curved=1;entryX=0;entryY=1;entryDx=0;entryDy=0;exitX=1;exitY=0;exitDx=0;exitDy=0;" edge="1" parent="1" source="rh1283ys4lGFoWlDzSLO-3" target="rh1283ys4lGFoWlDzSLO-10">
          <mxGeometry width="50" height="50" relative="1" as="geometry">
            <mxPoint x="630" y="190" as="sourcePoint" />
            <mxPoint x="680" y="140" as="targetPoint" />
          </mxGeometry>
        </mxCell>
        <mxCell id="rh1283ys4lGFoWlDzSLO-26" value="" style="endArrow=classic;html=1;rounded=0;fontSize=12;startSize=8;endSize=8;curved=1;entryX=0;entryY=0.5;entryDx=0;entryDy=0;exitX=1;exitY=0.5;exitDx=0;exitDy=0;" edge="1" parent="1" source="rh1283ys4lGFoWlDzSLO-3" target="rh1283ys4lGFoWlDzSLO-11">
          <mxGeometry width="50" height="50" relative="1" as="geometry">
            <mxPoint x="610" y="260" as="sourcePoint" />
            <mxPoint x="660" y="210" as="targetPoint" />
          </mxGeometry>
        </mxCell>
        <mxCell id="rh1283ys4lGFoWlDzSLO-27" value="" style="endArrow=none;html=1;rounded=0;fontSize=12;startSize=8;endSize=8;curved=1;entryX=0.5;entryY=1;entryDx=0;entryDy=0;exitX=0.5;exitY=0;exitDx=0;exitDy=0;" edge="1" parent="1" source="rh1283ys4lGFoWlDzSLO-12" target="rh1283ys4lGFoWlDzSLO-3">
          <mxGeometry width="50" height="50" relative="1" as="geometry">
            <mxPoint x="530" y="320" as="sourcePoint" />
            <mxPoint x="580" y="270" as="targetPoint" />
          </mxGeometry>
        </mxCell>
        <mxCell id="rh1283ys4lGFoWlDzSLO-28" value="" style="endArrow=none;html=1;rounded=0;fontSize=12;startSize=8;endSize=8;curved=1;entryX=0.5;entryY=1;entryDx=0;entryDy=0;exitX=0.5;exitY=0;exitDx=0;exitDy=0;" edge="1" parent="1" source="rh1283ys4lGFoWlDzSLO-13" target="rh1283ys4lGFoWlDzSLO-12">
          <mxGeometry width="50" height="50" relative="1" as="geometry">
            <mxPoint x="510" y="480" as="sourcePoint" />
            <mxPoint x="560" y="430" as="targetPoint" />
          </mxGeometry>
        </mxCell>
        <mxCell id="rh1283ys4lGFoWlDzSLO-29" value="" style="endArrow=classic;html=1;rounded=0;fontSize=12;startSize=8;endSize=8;curved=1;entryX=1;entryY=0.5;entryDx=0;entryDy=0;exitX=0;exitY=1;exitDx=0;exitDy=0;" edge="1" parent="1" source="rh1283ys4lGFoWlDzSLO-13" target="rh1283ys4lGFoWlDzSLO-15">
          <mxGeometry width="50" height="50" relative="1" as="geometry">
            <mxPoint x="450" y="610" as="sourcePoint" />
            <mxPoint x="500" y="560" as="targetPoint" />
          </mxGeometry>
        </mxCell>
        <mxCell id="rh1283ys4lGFoWlDzSLO-30" value="" style="endArrow=classic;html=1;rounded=0;fontSize=12;startSize=8;endSize=8;curved=1;entryX=0.5;entryY=0;entryDx=0;entryDy=0;exitX=0.5;exitY=1;exitDx=0;exitDy=0;" edge="1" parent="1" source="rh1283ys4lGFoWlDzSLO-13" target="rh1283ys4lGFoWlDzSLO-14">
          <mxGeometry width="50" height="50" relative="1" as="geometry">
            <mxPoint x="540" y="600" as="sourcePoint" />
            <mxPoint x="590" y="550" as="targetPoint" />
          </mxGeometry>
        </mxCell>
        <mxCell id="rh1283ys4lGFoWlDzSLO-31" value="" style="endArrow=classic;html=1;rounded=0;fontSize=12;startSize=8;endSize=8;curved=1;entryX=0;entryY=0.5;entryDx=0;entryDy=0;exitX=1;exitY=1;exitDx=0;exitDy=0;" edge="1" parent="1" source="rh1283ys4lGFoWlDzSLO-13" target="rh1283ys4lGFoWlDzSLO-16">
          <mxGeometry width="50" height="50" relative="1" as="geometry">
            <mxPoint x="610" y="590" as="sourcePoint" />
            <mxPoint x="660" y="540" as="targetPoint" />
          </mxGeometry>
        </mxCell>
      </root>
    </mxGraphModel>
  </diagram>
  <diagram id="94MlXBvXD6STR8CXAE5P" name="P치gina-2">
    <mxGraphModel dx="1960" dy="1601" grid="1" gridSize="10" guides="1" tooltips="1" connect="1" arrows="1" fold="1" page="0" pageScale="1" pageWidth="827" pageHeight="1169" math="0" shadow="0">
      <root>
        <mxCell id="0" />
        <mxCell id="1" parent="0" />
        <mxCell id="WIpiCR2bm9lzIn4Avalw-11" style="edgeStyle=none;curved=1;rounded=0;orthogonalLoop=1;jettySize=auto;html=1;exitX=0.25;exitY=0;exitDx=0;exitDy=0;entryX=0.5;entryY=1;entryDx=0;entryDy=0;fontSize=12;startSize=8;endSize=8;" edge="1" parent="1" source="WIpiCR2bm9lzIn4Avalw-2" target="WIpiCR2bm9lzIn4Avalw-5">
          <mxGeometry relative="1" as="geometry">
            <Array as="points">
              <mxPoint x="140" y="-100" />
            </Array>
          </mxGeometry>
        </mxCell>
        <mxCell id="WIpiCR2bm9lzIn4Avalw-12" style="edgeStyle=none;curved=1;rounded=0;orthogonalLoop=1;jettySize=auto;html=1;exitX=0.75;exitY=0;exitDx=0;exitDy=0;entryX=0.5;entryY=1;entryDx=0;entryDy=0;fontSize=12;startSize=8;endSize=8;" edge="1" parent="1" source="WIpiCR2bm9lzIn4Avalw-2" target="WIpiCR2bm9lzIn4Avalw-3">
          <mxGeometry relative="1" as="geometry" />
        </mxCell>
        <mxCell id="WIpiCR2bm9lzIn4Avalw-15" style="edgeStyle=none;curved=1;rounded=0;orthogonalLoop=1;jettySize=auto;html=1;exitX=0.25;exitY=1;exitDx=0;exitDy=0;entryX=0.5;entryY=0;entryDx=0;entryDy=0;fontSize=12;startSize=8;endSize=8;" edge="1" parent="1" source="WIpiCR2bm9lzIn4Avalw-2" target="WIpiCR2bm9lzIn4Avalw-7">
          <mxGeometry relative="1" as="geometry" />
        </mxCell>
        <mxCell id="WIpiCR2bm9lzIn4Avalw-16" style="edgeStyle=none;curved=1;rounded=0;orthogonalLoop=1;jettySize=auto;html=1;exitX=0;exitY=0;exitDx=0;exitDy=0;entryX=0;entryY=1;entryDx=0;entryDy=0;fontSize=12;startSize=8;endSize=8;" edge="1" parent="1" source="BRt06B8rS6gUO9V819b6-4" target="WIpiCR2bm9lzIn4Avalw-9">
          <mxGeometry relative="1" as="geometry" />
        </mxCell>
        <mxCell id="WIpiCR2bm9lzIn4Avalw-2" value="CAMIONEROS" style="rounded=0;whiteSpace=wrap;html=1;" vertex="1" parent="1">
          <mxGeometry x="160" y="-50" width="120" height="60" as="geometry" />
        </mxCell>
        <mxCell id="WIpiCR2bm9lzIn4Avalw-3" value="&lt;u&gt;DNI&lt;/u&gt;" style="ellipse;whiteSpace=wrap;html=1;" vertex="1" parent="1">
          <mxGeometry x="170" y="-240" width="120" height="80" as="geometry" />
        </mxCell>
        <mxCell id="WIpiCR2bm9lzIn4Avalw-4" value="ENTREGAR" style="rhombus;whiteSpace=wrap;html=1;" vertex="1" parent="1">
          <mxGeometry x="350" y="-60" width="80" height="80" as="geometry" />
        </mxCell>
        <mxCell id="WIpiCR2bm9lzIn4Avalw-5" value="Nombre" style="ellipse;whiteSpace=wrap;html=1;" vertex="1" parent="1">
          <mxGeometry x="30" y="-230" width="120" height="80" as="geometry" />
        </mxCell>
        <mxCell id="WIpiCR2bm9lzIn4Avalw-6" value="N췈 telefono" style="ellipse;whiteSpace=wrap;html=1;" vertex="1" parent="1">
          <mxGeometry y="-120" width="120" height="80" as="geometry" />
        </mxCell>
        <mxCell id="WIpiCR2bm9lzIn4Avalw-7" value="Salario" style="ellipse;whiteSpace=wrap;html=1;" vertex="1" parent="1">
          <mxGeometry x="20" y="81" width="120" height="80" as="geometry" />
        </mxCell>
        <mxCell id="WIpiCR2bm9lzIn4Avalw-8" value="Direcci칩n" style="ellipse;whiteSpace=wrap;html=1;" vertex="1" parent="1">
          <mxGeometry y="-10" width="120" height="80" as="geometry" />
        </mxCell>
        <mxCell id="WIpiCR2bm9lzIn4Avalw-9" value="Localidad de&amp;nbsp;&lt;div&gt;residencia&lt;/div&gt;" style="ellipse;whiteSpace=wrap;html=1;" vertex="1" parent="1">
          <mxGeometry x="310" y="-220" width="120" height="80" as="geometry" />
        </mxCell>
        <mxCell id="WIpiCR2bm9lzIn4Avalw-13" style="edgeStyle=none;curved=1;rounded=0;orthogonalLoop=1;jettySize=auto;html=1;exitX=0;exitY=0.25;exitDx=0;exitDy=0;entryX=0.95;entryY=0.763;entryDx=0;entryDy=0;entryPerimeter=0;fontSize=12;startSize=8;endSize=8;" edge="1" parent="1" source="WIpiCR2bm9lzIn4Avalw-2" target="WIpiCR2bm9lzIn4Avalw-6">
          <mxGeometry relative="1" as="geometry" />
        </mxCell>
        <mxCell id="WIpiCR2bm9lzIn4Avalw-14" style="edgeStyle=none;curved=1;rounded=0;orthogonalLoop=1;jettySize=auto;html=1;exitX=0;exitY=0.75;exitDx=0;exitDy=0;entryX=0.933;entryY=0.288;entryDx=0;entryDy=0;entryPerimeter=0;fontSize=12;startSize=8;endSize=8;" edge="1" parent="1" source="WIpiCR2bm9lzIn4Avalw-2" target="WIpiCR2bm9lzIn4Avalw-8">
          <mxGeometry relative="1" as="geometry" />
        </mxCell>
        <mxCell id="BRt06B8rS6gUO9V819b6-11" style="edgeStyle=none;curved=1;rounded=0;orthogonalLoop=1;jettySize=auto;html=1;exitX=0.5;exitY=0;exitDx=0;exitDy=0;entryX=0.5;entryY=1;entryDx=0;entryDy=0;fontSize=12;startSize=8;endSize=8;" edge="1" parent="1" source="BRt06B8rS6gUO9V819b6-2" target="BRt06B8rS6gUO9V819b6-9">
          <mxGeometry relative="1" as="geometry" />
        </mxCell>
        <mxCell id="BRt06B8rS6gUO9V819b6-13" style="edgeStyle=none;curved=1;rounded=0;orthogonalLoop=1;jettySize=auto;html=1;exitX=1;exitY=0.75;exitDx=0;exitDy=0;entryX=0;entryY=0.5;entryDx=0;entryDy=0;fontSize=12;startSize=8;endSize=8;" edge="1" parent="1" source="BRt06B8rS6gUO9V819b6-2" target="BRt06B8rS6gUO9V819b6-8">
          <mxGeometry relative="1" as="geometry" />
        </mxCell>
        <mxCell id="BRt06B8rS6gUO9V819b6-14" style="edgeStyle=none;curved=1;rounded=0;orthogonalLoop=1;jettySize=auto;html=1;exitX=0.5;exitY=1;exitDx=0;exitDy=0;entryX=0;entryY=0;entryDx=0;entryDy=0;fontSize=12;startSize=8;endSize=8;" edge="1" parent="1" source="BRt06B8rS6gUO9V819b6-2" target="BRt06B8rS6gUO9V819b6-10">
          <mxGeometry relative="1" as="geometry" />
        </mxCell>
        <mxCell id="BRt06B8rS6gUO9V819b6-2" value="PAQUETES" style="rounded=0;whiteSpace=wrap;html=1;" vertex="1" parent="1">
          <mxGeometry x="500" y="-50" width="120" height="60" as="geometry" />
        </mxCell>
        <mxCell id="BRt06B8rS6gUO9V819b6-4" value="1,1" style="text;strokeColor=none;fillColor=none;html=1;align=center;verticalAlign=middle;whiteSpace=wrap;rounded=0;fontSize=16;" vertex="1" parent="1">
          <mxGeometry x="270" y="-50" width="60" height="30" as="geometry" />
        </mxCell>
        <mxCell id="BRt06B8rS6gUO9V819b6-5" value="1,n" style="text;html=1;align=center;verticalAlign=middle;resizable=0;points=[];autosize=1;strokeColor=none;fillColor=none;fontSize=16;" vertex="1" parent="1">
          <mxGeometry x="460" y="-50" width="50" height="30" as="geometry" />
        </mxCell>
        <mxCell id="BRt06B8rS6gUO9V819b6-6" value="1,n" style="text;html=1;align=center;verticalAlign=middle;resizable=0;points=[];autosize=1;strokeColor=none;fillColor=none;fontSize=16;" vertex="1" parent="1">
          <mxGeometry x="365" y="-90" width="50" height="30" as="geometry" />
        </mxCell>
        <mxCell id="BRt06B8rS6gUO9V819b6-7" value="Descripcci칩n" style="ellipse;whiteSpace=wrap;html=1;" vertex="1" parent="1">
          <mxGeometry x="660" y="-160" width="120" height="80" as="geometry" />
        </mxCell>
        <mxCell id="BRt06B8rS6gUO9V819b6-8" value="Destinatario" style="ellipse;whiteSpace=wrap;html=1;" vertex="1" parent="1">
          <mxGeometry x="660" y="-60" width="120" height="80" as="geometry" />
        </mxCell>
        <mxCell id="BRt06B8rS6gUO9V819b6-9" value="&lt;u&gt;C칩digo&lt;/u&gt;" style="ellipse;whiteSpace=wrap;html=1;" vertex="1" parent="1">
          <mxGeometry x="500" y="-170" width="120" height="80" as="geometry" />
        </mxCell>
        <mxCell id="BRt06B8rS6gUO9V819b6-10" value="Direcci칩n" style="ellipse;whiteSpace=wrap;html=1;" vertex="1" parent="1">
          <mxGeometry x="650" y="40" width="120" height="80" as="geometry" />
        </mxCell>
        <mxCell id="BRt06B8rS6gUO9V819b6-12" style="edgeStyle=none;curved=1;rounded=0;orthogonalLoop=1;jettySize=auto;html=1;exitX=1;exitY=0.25;exitDx=0;exitDy=0;entryX=0.05;entryY=0.763;entryDx=0;entryDy=0;entryPerimeter=0;fontSize=12;startSize=8;endSize=8;" edge="1" parent="1" source="BRt06B8rS6gUO9V819b6-2" target="BRt06B8rS6gUO9V819b6-7">
          <mxGeometry relative="1" as="geometry" />
        </mxCell>
        <mxCell id="BRt06B8rS6gUO9V819b6-15" value="LLEGAR" style="rhombus;whiteSpace=wrap;html=1;" vertex="1" parent="1">
          <mxGeometry x="520" y="60" width="80" height="80" as="geometry" />
        </mxCell>
        <mxCell id="BRt06B8rS6gUO9V819b6-19" style="edgeStyle=none;curved=1;rounded=0;orthogonalLoop=1;jettySize=auto;html=1;exitX=0;exitY=1;exitDx=0;exitDy=0;entryX=0.5;entryY=0;entryDx=0;entryDy=0;fontSize=12;startSize=8;endSize=8;" edge="1" parent="1" source="BRt06B8rS6gUO9V819b6-16" target="BRt06B8rS6gUO9V819b6-17">
          <mxGeometry relative="1" as="geometry" />
        </mxCell>
        <mxCell id="BRt06B8rS6gUO9V819b6-20" style="edgeStyle=none;curved=1;rounded=0;orthogonalLoop=1;jettySize=auto;html=1;exitX=1;exitY=1;exitDx=0;exitDy=0;entryX=0.5;entryY=0;entryDx=0;entryDy=0;fontSize=12;startSize=8;endSize=8;" edge="1" parent="1" source="BRt06B8rS6gUO9V819b6-16" target="BRt06B8rS6gUO9V819b6-18">
          <mxGeometry relative="1" as="geometry" />
        </mxCell>
        <mxCell id="BRt06B8rS6gUO9V819b6-16" value="PROVINCIAS" style="rounded=0;whiteSpace=wrap;html=1;" vertex="1" parent="1">
          <mxGeometry x="500" y="210" width="120" height="60" as="geometry" />
        </mxCell>
        <mxCell id="BRt06B8rS6gUO9V819b6-17" value="&lt;u&gt;C칩digo&lt;/u&gt;" style="ellipse;whiteSpace=wrap;html=1;" vertex="1" parent="1">
          <mxGeometry x="425" y="280" width="120" height="80" as="geometry" />
        </mxCell>
        <mxCell id="BRt06B8rS6gUO9V819b6-18" value="Nombre" style="ellipse;whiteSpace=wrap;html=1;" vertex="1" parent="1">
          <mxGeometry x="580" y="280" width="120" height="80" as="geometry" />
        </mxCell>
        <mxCell id="BRt06B8rS6gUO9V819b6-23" value="1,n" style="text;html=1;align=center;verticalAlign=middle;resizable=0;points=[];autosize=1;strokeColor=none;fillColor=none;fontSize=16;" vertex="1" parent="1">
          <mxGeometry x="510" y="10" width="50" height="30" as="geometry" />
        </mxCell>
        <mxCell id="BRt06B8rS6gUO9V819b6-24" value="1,1" style="text;html=1;align=center;verticalAlign=middle;resizable=0;points=[];autosize=1;strokeColor=none;fillColor=none;fontSize=16;" vertex="1" parent="1">
          <mxGeometry x="510" y="180" width="50" height="30" as="geometry" />
        </mxCell>
        <mxCell id="BRt06B8rS6gUO9V819b6-25" value="" style="endArrow=none;html=1;rounded=0;fontSize=12;startSize=8;endSize=8;curved=1;exitX=1;exitY=0.5;exitDx=0;exitDy=0;entryX=0;entryY=0.5;entryDx=0;entryDy=0;" edge="1" parent="1" source="WIpiCR2bm9lzIn4Avalw-2" target="WIpiCR2bm9lzIn4Avalw-4">
          <mxGeometry width="50" height="50" relative="1" as="geometry">
            <mxPoint x="290" y="5" as="sourcePoint" />
            <mxPoint x="340" y="-45" as="targetPoint" />
          </mxGeometry>
        </mxCell>
        <mxCell id="BRt06B8rS6gUO9V819b6-26" value="" style="endArrow=none;html=1;rounded=0;fontSize=12;startSize=8;endSize=8;curved=1;exitX=1;exitY=0.5;exitDx=0;exitDy=0;entryX=0;entryY=0.5;entryDx=0;entryDy=0;" edge="1" parent="1" source="WIpiCR2bm9lzIn4Avalw-4" target="BRt06B8rS6gUO9V819b6-2">
          <mxGeometry width="50" height="50" relative="1" as="geometry">
            <mxPoint x="440" y="120" as="sourcePoint" />
            <mxPoint x="490" y="70" as="targetPoint" />
            <Array as="points">
              <mxPoint x="450" y="-20" />
              <mxPoint x="460" y="-20" />
              <mxPoint x="470" y="-20" />
            </Array>
          </mxGeometry>
        </mxCell>
        <mxCell id="BRt06B8rS6gUO9V819b6-27" value="" style="endArrow=none;html=1;rounded=0;fontSize=12;startSize=8;endSize=8;curved=1;entryX=1.02;entryY=0.033;entryDx=0;entryDy=0;entryPerimeter=0;exitX=0.5;exitY=0;exitDx=0;exitDy=0;" edge="1" parent="1" source="BRt06B8rS6gUO9V819b6-15" target="BRt06B8rS6gUO9V819b6-23">
          <mxGeometry width="50" height="50" relative="1" as="geometry">
            <mxPoint x="440" y="80" as="sourcePoint" />
            <mxPoint x="490" y="30" as="targetPoint" />
          </mxGeometry>
        </mxCell>
        <mxCell id="BRt06B8rS6gUO9V819b6-28" value="" style="endArrow=none;html=1;rounded=0;fontSize=12;startSize=8;endSize=8;curved=1;entryX=0.5;entryY=1;entryDx=0;entryDy=0;exitX=0.5;exitY=0;exitDx=0;exitDy=0;" edge="1" parent="1" source="BRt06B8rS6gUO9V819b6-16" target="BRt06B8rS6gUO9V819b6-15">
          <mxGeometry width="50" height="50" relative="1" as="geometry">
            <mxPoint x="500" y="210" as="sourcePoint" />
            <mxPoint x="550" y="160" as="targetPoint" />
          </mxGeometry>
        </mxCell>
        <mxCell id="BRt06B8rS6gUO9V819b6-30" value="1,n" style="text;html=1;align=center;verticalAlign=middle;resizable=0;points=[];autosize=1;strokeColor=none;fillColor=none;fontSize=16;" vertex="1" parent="1">
          <mxGeometry x="479" y="81" width="50" height="30" as="geometry" />
        </mxCell>
        <mxCell id="BRt06B8rS6gUO9V819b6-31" value="CONDUCIR" style="rhombus;whiteSpace=wrap;html=1;" vertex="1" parent="1">
          <mxGeometry x="180" y="60" width="80" height="80" as="geometry" />
        </mxCell>
        <mxCell id="BRt06B8rS6gUO9V819b6-32" value="" style="endArrow=none;html=1;rounded=0;fontSize=12;startSize=8;endSize=8;curved=1;entryX=0.5;entryY=1;entryDx=0;entryDy=0;exitX=0.5;exitY=0;exitDx=0;exitDy=0;" edge="1" parent="1" source="BRt06B8rS6gUO9V819b6-31" target="WIpiCR2bm9lzIn4Avalw-2">
          <mxGeometry width="50" height="50" relative="1" as="geometry">
            <mxPoint x="210" y="70" as="sourcePoint" />
            <mxPoint x="260" y="20" as="targetPoint" />
          </mxGeometry>
        </mxCell>
        <mxCell id="BRt06B8rS6gUO9V819b6-44" style="edgeStyle=none;curved=1;rounded=0;orthogonalLoop=1;jettySize=auto;html=1;exitX=0;exitY=1;exitDx=0;exitDy=0;entryX=1;entryY=0;entryDx=0;entryDy=0;fontSize=12;startSize=8;endSize=8;" edge="1" parent="1" source="BRt06B8rS6gUO9V819b6-33" target="BRt06B8rS6gUO9V819b6-43">
          <mxGeometry relative="1" as="geometry" />
        </mxCell>
        <mxCell id="BRt06B8rS6gUO9V819b6-45" style="edgeStyle=none;curved=1;rounded=0;orthogonalLoop=1;jettySize=auto;html=1;exitX=1;exitY=1;exitDx=0;exitDy=0;entryX=0;entryY=0;entryDx=0;entryDy=0;fontSize=12;startSize=8;endSize=8;" edge="1" parent="1" source="BRt06B8rS6gUO9V819b6-33" target="BRt06B8rS6gUO9V819b6-40">
          <mxGeometry relative="1" as="geometry" />
        </mxCell>
        <mxCell id="BRt06B8rS6gUO9V819b6-46" style="edgeStyle=none;curved=1;rounded=0;orthogonalLoop=1;jettySize=auto;html=1;exitX=0.25;exitY=1;exitDx=0;exitDy=0;entryX=1;entryY=0;entryDx=0;entryDy=0;fontSize=12;startSize=8;endSize=8;" edge="1" parent="1" source="BRt06B8rS6gUO9V819b6-33" target="BRt06B8rS6gUO9V819b6-38">
          <mxGeometry relative="1" as="geometry" />
        </mxCell>
        <mxCell id="BRt06B8rS6gUO9V819b6-47" style="edgeStyle=none;curved=1;rounded=0;orthogonalLoop=1;jettySize=auto;html=1;exitX=0.75;exitY=1;exitDx=0;exitDy=0;entryX=0;entryY=0;entryDx=0;entryDy=0;fontSize=12;startSize=8;endSize=8;" edge="1" parent="1" source="BRt06B8rS6gUO9V819b6-33" target="BRt06B8rS6gUO9V819b6-39">
          <mxGeometry relative="1" as="geometry" />
        </mxCell>
        <mxCell id="BRt06B8rS6gUO9V819b6-33" value="CAMIONES" style="rounded=0;whiteSpace=wrap;html=1;" vertex="1" parent="1">
          <mxGeometry x="160" y="210" width="120" height="60" as="geometry" />
        </mxCell>
        <mxCell id="BRt06B8rS6gUO9V819b6-34" value="" style="endArrow=none;html=1;rounded=0;fontSize=12;startSize=8;endSize=8;curved=1;entryX=0.5;entryY=1;entryDx=0;entryDy=0;exitX=0.5;exitY=0;exitDx=0;exitDy=0;" edge="1" parent="1" source="BRt06B8rS6gUO9V819b6-33" target="BRt06B8rS6gUO9V819b6-31">
          <mxGeometry width="50" height="50" relative="1" as="geometry">
            <mxPoint x="210" y="210" as="sourcePoint" />
            <mxPoint x="260" y="160" as="targetPoint" />
          </mxGeometry>
        </mxCell>
        <mxCell id="BRt06B8rS6gUO9V819b6-36" value="1,n" style="text;html=1;align=center;verticalAlign=middle;resizable=0;points=[];autosize=1;strokeColor=none;fillColor=none;fontSize=16;" vertex="1" parent="1">
          <mxGeometry x="250" y="85" width="50" height="30" as="geometry" />
        </mxCell>
        <mxCell id="BRt06B8rS6gUO9V819b6-38" value="Modelo" style="ellipse;whiteSpace=wrap;html=1;" vertex="1" parent="1">
          <mxGeometry x="30" y="320" width="120" height="80" as="geometry" />
        </mxCell>
        <mxCell id="BRt06B8rS6gUO9V819b6-39" value="Tipo" style="ellipse;whiteSpace=wrap;html=1;" vertex="1" parent="1">
          <mxGeometry x="290" y="320" width="120" height="80" as="geometry" />
        </mxCell>
        <mxCell id="BRt06B8rS6gUO9V819b6-40" value="Potencia" style="ellipse;whiteSpace=wrap;html=1;" vertex="1" parent="1">
          <mxGeometry x="320" y="200" width="120" height="80" as="geometry" />
        </mxCell>
        <mxCell id="BRt06B8rS6gUO9V819b6-43" value="&lt;u&gt;Matricula&lt;/u&gt;" style="ellipse;whiteSpace=wrap;html=1;" vertex="1" parent="1">
          <mxGeometry y="200" width="120" height="80" as="geometry" />
        </mxCell>
        <mxCell id="BRt06B8rS6gUO9V819b6-48" value="1,n" style="text;html=1;align=center;verticalAlign=middle;resizable=0;points=[];autosize=1;strokeColor=none;fillColor=none;fontSize=16;" vertex="1" parent="1">
          <mxGeometry x="209" y="11" width="50" height="30" as="geometry" />
        </mxCell>
        <mxCell id="BRt06B8rS6gUO9V819b6-49" value="1,n" style="text;html=1;align=center;verticalAlign=middle;resizable=0;points=[];autosize=1;strokeColor=none;fillColor=none;fontSize=16;" vertex="1" parent="1">
          <mxGeometry x="209" y="181" width="50" height="30" as="geometry" />
        </mxCell>
      </root>
    </mxGraphModel>
  </diagram>
  <diagram id="KDBxF9w3OH_KcErqoTZW" name="P치gina-3">
    <mxGraphModel dx="2760" dy="2001" grid="1" gridSize="10" guides="1" tooltips="1" connect="1" arrows="1" fold="1" page="0" pageScale="1" pageWidth="827" pageHeight="1169" math="0" shadow="0">
      <root>
        <mxCell id="0" />
        <mxCell id="1" parent="0" />
        <mxCell id="9uQ9yj-8RR6WK3rBonOM-13" style="edgeStyle=none;curved=1;rounded=0;orthogonalLoop=1;jettySize=auto;html=1;exitX=0;exitY=0;exitDx=0;exitDy=0;entryX=0.5;entryY=1;entryDx=0;entryDy=0;fontSize=12;startSize=8;endSize=8;" edge="1" parent="1" source="9uQ9yj-8RR6WK3rBonOM-1" target="9uQ9yj-8RR6WK3rBonOM-10">
          <mxGeometry relative="1" as="geometry" />
        </mxCell>
        <mxCell id="9uQ9yj-8RR6WK3rBonOM-14" style="edgeStyle=none;curved=1;rounded=0;orthogonalLoop=1;jettySize=auto;html=1;exitX=1;exitY=0;exitDx=0;exitDy=0;entryX=0.5;entryY=1;entryDx=0;entryDy=0;fontSize=12;startSize=8;endSize=8;" edge="1" parent="1" source="9uQ9yj-8RR6WK3rBonOM-1" target="9uQ9yj-8RR6WK3rBonOM-8">
          <mxGeometry relative="1" as="geometry" />
        </mxCell>
        <mxCell id="9uQ9yj-8RR6WK3rBonOM-15" style="edgeStyle=none;curved=1;rounded=0;orthogonalLoop=1;jettySize=auto;html=1;exitX=1;exitY=1;exitDx=0;exitDy=0;entryX=0.5;entryY=0;entryDx=0;entryDy=0;fontSize=12;startSize=8;endSize=8;" edge="1" parent="1" source="9uQ9yj-8RR6WK3rBonOM-1" target="9uQ9yj-8RR6WK3rBonOM-7">
          <mxGeometry relative="1" as="geometry" />
        </mxCell>
        <mxCell id="9uQ9yj-8RR6WK3rBonOM-16" style="edgeStyle=none;curved=1;rounded=0;orthogonalLoop=1;jettySize=auto;html=1;exitX=0;exitY=1;exitDx=0;exitDy=0;entryX=0.5;entryY=0;entryDx=0;entryDy=0;fontSize=12;startSize=8;endSize=8;" edge="1" parent="1" source="9uQ9yj-8RR6WK3rBonOM-1" target="9uQ9yj-8RR6WK3rBonOM-9">
          <mxGeometry relative="1" as="geometry" />
        </mxCell>
        <mxCell id="9uQ9yj-8RR6WK3rBonOM-1" value="PROFESOR" style="rounded=0;whiteSpace=wrap;html=1;" vertex="1" parent="1">
          <mxGeometry x="-580" y="-370" width="120" height="60" as="geometry" />
        </mxCell>
        <mxCell id="9uQ9yj-8RR6WK3rBonOM-5" style="edgeStyle=none;curved=1;rounded=0;orthogonalLoop=1;jettySize=auto;html=1;exitX=1;exitY=0.25;exitDx=0;exitDy=0;entryX=0;entryY=0.25;entryDx=0;entryDy=0;fontSize=12;startSize=8;endSize=8;" edge="1" parent="1" source="9uQ9yj-8RR6WK3rBonOM-2" target="9uQ9yj-8RR6WK3rBonOM-4">
          <mxGeometry relative="1" as="geometry" />
        </mxCell>
        <mxCell id="9uQ9yj-8RR6WK3rBonOM-23" style="edgeStyle=none;curved=1;rounded=0;orthogonalLoop=1;jettySize=auto;html=1;exitX=0;exitY=0;exitDx=0;exitDy=0;entryX=0.5;entryY=1;entryDx=0;entryDy=0;fontSize=12;startSize=8;endSize=8;" edge="1" parent="1" source="9uQ9yj-8RR6WK3rBonOM-2" target="9uQ9yj-8RR6WK3rBonOM-22">
          <mxGeometry relative="1" as="geometry" />
        </mxCell>
        <mxCell id="9uQ9yj-8RR6WK3rBonOM-24" style="edgeStyle=none;curved=1;rounded=0;orthogonalLoop=1;jettySize=auto;html=1;exitX=1;exitY=0;exitDx=0;exitDy=0;entryX=0.5;entryY=1;entryDx=0;entryDy=0;fontSize=12;startSize=8;endSize=8;" edge="1" parent="1" source="9uQ9yj-8RR6WK3rBonOM-2" target="9uQ9yj-8RR6WK3rBonOM-21">
          <mxGeometry relative="1" as="geometry" />
        </mxCell>
        <mxCell id="9uQ9yj-8RR6WK3rBonOM-25" style="edgeStyle=none;curved=1;rounded=0;orthogonalLoop=1;jettySize=auto;html=1;exitX=1;exitY=1;exitDx=0;exitDy=0;entryX=0.5;entryY=0;entryDx=0;entryDy=0;fontSize=12;startSize=8;endSize=8;" edge="1" parent="1" source="9uQ9yj-8RR6WK3rBonOM-2" target="9uQ9yj-8RR6WK3rBonOM-19">
          <mxGeometry relative="1" as="geometry" />
        </mxCell>
        <mxCell id="9uQ9yj-8RR6WK3rBonOM-26" style="edgeStyle=none;curved=1;rounded=0;orthogonalLoop=1;jettySize=auto;html=1;exitX=0;exitY=1;exitDx=0;exitDy=0;entryX=0.5;entryY=0;entryDx=0;entryDy=0;fontSize=12;startSize=8;endSize=8;" edge="1" parent="1" source="9uQ9yj-8RR6WK3rBonOM-2" target="9uQ9yj-8RR6WK3rBonOM-20">
          <mxGeometry relative="1" as="geometry" />
        </mxCell>
        <mxCell id="9uQ9yj-8RR6WK3rBonOM-2" value="ESTUDIANTES" style="rounded=0;whiteSpace=wrap;html=1;" vertex="1" parent="1">
          <mxGeometry x="90" y="-370" width="120" height="60" as="geometry" />
        </mxCell>
        <mxCell id="9uQ9yj-8RR6WK3rBonOM-17" style="edgeStyle=none;curved=1;rounded=0;orthogonalLoop=1;jettySize=auto;html=1;exitX=0.5;exitY=0;exitDx=0;exitDy=0;entryX=0.5;entryY=1;entryDx=0;entryDy=0;fontSize=12;startSize=8;endSize=8;" edge="1" parent="1" source="9uQ9yj-8RR6WK3rBonOM-3" target="9uQ9yj-8RR6WK3rBonOM-12">
          <mxGeometry relative="1" as="geometry" />
        </mxCell>
        <mxCell id="9uQ9yj-8RR6WK3rBonOM-18" style="edgeStyle=none;curved=1;rounded=0;orthogonalLoop=1;jettySize=auto;html=1;exitX=0.5;exitY=1;exitDx=0;exitDy=0;entryX=0.5;entryY=0;entryDx=0;entryDy=0;fontSize=12;startSize=8;endSize=8;" edge="1" parent="1" source="9uQ9yj-8RR6WK3rBonOM-3" target="9uQ9yj-8RR6WK3rBonOM-11">
          <mxGeometry relative="1" as="geometry" />
        </mxCell>
        <mxCell id="9uQ9yj-8RR6WK3rBonOM-3" value="M칍DULOS" style="rounded=0;whiteSpace=wrap;html=1;" vertex="1" parent="1">
          <mxGeometry x="-240" y="-370" width="120" height="60" as="geometry" />
        </mxCell>
        <mxCell id="9uQ9yj-8RR6WK3rBonOM-6" style="edgeStyle=none;curved=1;rounded=0;orthogonalLoop=1;jettySize=auto;html=1;exitX=0;exitY=0.75;exitDx=0;exitDy=0;entryX=1;entryY=0.75;entryDx=0;entryDy=0;fontSize=12;startSize=8;endSize=8;" edge="1" parent="1" source="9uQ9yj-8RR6WK3rBonOM-4" target="9uQ9yj-8RR6WK3rBonOM-2">
          <mxGeometry relative="1" as="geometry" />
        </mxCell>
        <mxCell id="9uQ9yj-8RR6WK3rBonOM-4" value="DELEGADO" style="rounded=0;whiteSpace=wrap;html=1;" vertex="1" parent="1">
          <mxGeometry x="330" y="-370" width="120" height="60" as="geometry" />
        </mxCell>
        <mxCell id="9uQ9yj-8RR6WK3rBonOM-7" value="Direcci칩n" style="ellipse;whiteSpace=wrap;html=1;" vertex="1" parent="1">
          <mxGeometry x="-460" y="-240" width="120" height="80" as="geometry" />
        </mxCell>
        <mxCell id="9uQ9yj-8RR6WK3rBonOM-8" value="N췈Telefono" style="ellipse;whiteSpace=wrap;html=1;" vertex="1" parent="1">
          <mxGeometry x="-460" y="-520" width="120" height="80" as="geometry" />
        </mxCell>
        <mxCell id="9uQ9yj-8RR6WK3rBonOM-9" value="&lt;u&gt;DNI&lt;/u&gt;" style="ellipse;whiteSpace=wrap;html=1;" vertex="1" parent="1">
          <mxGeometry x="-700" y="-240" width="120" height="80" as="geometry" />
        </mxCell>
        <mxCell id="9uQ9yj-8RR6WK3rBonOM-10" value="Nombre" style="ellipse;whiteSpace=wrap;html=1;" vertex="1" parent="1">
          <mxGeometry x="-690" y="-520" width="120" height="80" as="geometry" />
        </mxCell>
        <mxCell id="9uQ9yj-8RR6WK3rBonOM-11" value="Nombre" style="ellipse;whiteSpace=wrap;html=1;" vertex="1" parent="1">
          <mxGeometry x="-240" y="-240" width="120" height="80" as="geometry" />
        </mxCell>
        <mxCell id="9uQ9yj-8RR6WK3rBonOM-12" value="&lt;u&gt;C칩digo&lt;/u&gt;" style="ellipse;whiteSpace=wrap;html=1;" vertex="1" parent="1">
          <mxGeometry x="-240" y="-520" width="120" height="80" as="geometry" />
        </mxCell>
        <mxCell id="9uQ9yj-8RR6WK3rBonOM-19" value="&lt;u&gt;N췈 Expediente&lt;/u&gt;" style="ellipse;whiteSpace=wrap;html=1;" vertex="1" parent="1">
          <mxGeometry x="200" y="-230" width="120" height="80" as="geometry" />
        </mxCell>
        <mxCell id="9uQ9yj-8RR6WK3rBonOM-20" value="Fecha&lt;div&gt;Nacimiento&lt;/div&gt;" style="ellipse;whiteSpace=wrap;html=1;" vertex="1" parent="1">
          <mxGeometry x="-20" y="-230" width="120" height="80" as="geometry" />
        </mxCell>
        <mxCell id="9uQ9yj-8RR6WK3rBonOM-21" value="Apellidos" style="ellipse;whiteSpace=wrap;html=1;" vertex="1" parent="1">
          <mxGeometry x="200" y="-520" width="120" height="80" as="geometry" />
        </mxCell>
        <mxCell id="9uQ9yj-8RR6WK3rBonOM-22" value="Nombre" style="ellipse;whiteSpace=wrap;html=1;" vertex="1" parent="1">
          <mxGeometry x="-20" y="-520" width="120" height="80" as="geometry" />
        </mxCell>
        <mxCell id="9uQ9yj-8RR6WK3rBonOM-27" value="" style="endArrow=none;html=1;rounded=0;fontSize=12;startSize=8;endSize=8;curved=1;exitX=1;exitY=0.5;exitDx=0;exitDy=0;entryX=0;entryY=0.5;entryDx=0;entryDy=0;" edge="1" parent="1" source="9uQ9yj-8RR6WK3rBonOM-1" target="9uQ9yj-8RR6WK3rBonOM-3">
          <mxGeometry width="50" height="50" relative="1" as="geometry">
            <mxPoint x="-370" y="-300" as="sourcePoint" />
            <mxPoint x="-390" y="-340" as="targetPoint" />
          </mxGeometry>
        </mxCell>
        <mxCell id="9uQ9yj-8RR6WK3rBonOM-28" value="" style="endArrow=none;html=1;rounded=0;fontSize=12;startSize=8;endSize=8;curved=1;exitX=1;exitY=0.5;exitDx=0;exitDy=0;entryX=0;entryY=0.5;entryDx=0;entryDy=0;" edge="1" parent="1" source="9uQ9yj-8RR6WK3rBonOM-30" target="9uQ9yj-8RR6WK3rBonOM-2">
          <mxGeometry width="50" height="50" relative="1" as="geometry">
            <mxPoint x="-60" y="-310" as="sourcePoint" />
            <mxPoint x="-10" y="-360" as="targetPoint" />
          </mxGeometry>
        </mxCell>
        <mxCell id="9uQ9yj-8RR6WK3rBonOM-29" value="ENSE칌AR" style="rhombus;whiteSpace=wrap;html=1;" vertex="1" parent="1">
          <mxGeometry x="-390" y="-380" width="80" height="80" as="geometry" />
        </mxCell>
        <mxCell id="9uQ9yj-8RR6WK3rBonOM-31" value="" style="endArrow=none;html=1;rounded=0;fontSize=12;startSize=8;endSize=8;curved=1;exitX=1;exitY=0.5;exitDx=0;exitDy=0;entryX=0;entryY=0.5;entryDx=0;entryDy=0;" edge="1" parent="1" source="9uQ9yj-8RR6WK3rBonOM-3" target="9uQ9yj-8RR6WK3rBonOM-30">
          <mxGeometry width="50" height="50" relative="1" as="geometry">
            <mxPoint x="-120" y="-340" as="sourcePoint" />
            <mxPoint x="70" y="-340" as="targetPoint" />
          </mxGeometry>
        </mxCell>
        <mxCell id="9uQ9yj-8RR6WK3rBonOM-30" value="INSCRIBIR" style="rhombus;whiteSpace=wrap;html=1;" vertex="1" parent="1">
          <mxGeometry x="-51" y="-380" width="80" height="80" as="geometry" />
        </mxCell>
        <mxCell id="9uQ9yj-8RR6WK3rBonOM-32" value="1,1" style="text;html=1;align=center;verticalAlign=middle;resizable=0;points=[];autosize=1;strokeColor=none;fillColor=none;fontSize=16;" vertex="1" parent="1">
          <mxGeometry x="-460" y="-370" width="50" height="30" as="geometry" />
        </mxCell>
        <mxCell id="9uQ9yj-8RR6WK3rBonOM-33" value="1,n" style="text;html=1;align=center;verticalAlign=middle;resizable=0;points=[];autosize=1;strokeColor=none;fillColor=none;fontSize=16;" vertex="1" parent="1">
          <mxGeometry x="-281" y="-369" width="50" height="30" as="geometry" />
        </mxCell>
        <mxCell id="9uQ9yj-8RR6WK3rBonOM-34" value="1,n" style="text;html=1;align=center;verticalAlign=middle;resizable=0;points=[];autosize=1;strokeColor=none;fillColor=none;fontSize=16;" vertex="1" parent="1">
          <mxGeometry x="-131" y="-369" width="50" height="30" as="geometry" />
        </mxCell>
        <mxCell id="9uQ9yj-8RR6WK3rBonOM-35" value="1,n" style="text;html=1;align=center;verticalAlign=middle;resizable=0;points=[];autosize=1;strokeColor=none;fillColor=none;fontSize=16;" vertex="1" parent="1">
          <mxGeometry x="29" y="-369" width="50" height="30" as="geometry" />
        </mxCell>
      </root>
    </mxGraphModel>
  </diagram>
  <diagram id="jZuz8NtPUMqoIJe9QObC" name="P치gina-4">
    <mxGraphModel dx="1772" dy="841" grid="1" gridSize="10" guides="1" tooltips="1" connect="1" arrows="1" fold="1" page="0" pageScale="1" pageWidth="827" pageHeight="1169" math="0" shadow="0">
      <root>
        <mxCell id="0" />
        <mxCell id="1" parent="0" />
        <mxCell id="mVA5LgaerW7Mvd-htStF-9" style="edgeStyle=none;curved=1;rounded=0;orthogonalLoop=1;jettySize=auto;html=1;exitX=0;exitY=1;exitDx=0;exitDy=0;entryX=0.5;entryY=0;entryDx=0;entryDy=0;fontSize=12;startSize=8;endSize=8;" edge="1" parent="1" source="mVA5LgaerW7Mvd-htStF-1" target="mVA5LgaerW7Mvd-htStF-7">
          <mxGeometry relative="1" as="geometry" />
        </mxCell>
        <mxCell id="mVA5LgaerW7Mvd-htStF-10" style="edgeStyle=none;curved=1;rounded=0;orthogonalLoop=1;jettySize=auto;html=1;exitX=1;exitY=1;exitDx=0;exitDy=0;entryX=0.5;entryY=0;entryDx=0;entryDy=0;fontSize=12;startSize=8;endSize=8;" edge="1" parent="1" source="mVA5LgaerW7Mvd-htStF-1" target="mVA5LgaerW7Mvd-htStF-8">
          <mxGeometry relative="1" as="geometry" />
        </mxCell>
        <mxCell id="mVA5LgaerW7Mvd-htStF-11" style="edgeStyle=none;curved=1;rounded=0;orthogonalLoop=1;jettySize=auto;html=1;exitX=1;exitY=0;exitDx=0;exitDy=0;entryX=0.5;entryY=1;entryDx=0;entryDy=0;fontSize=12;startSize=8;endSize=8;" edge="1" parent="1" source="mVA5LgaerW7Mvd-htStF-1" target="mVA5LgaerW7Mvd-htStF-5">
          <mxGeometry relative="1" as="geometry" />
        </mxCell>
        <mxCell id="mVA5LgaerW7Mvd-htStF-12" style="edgeStyle=none;curved=1;rounded=0;orthogonalLoop=1;jettySize=auto;html=1;exitX=0;exitY=0;exitDx=0;exitDy=0;entryX=0.5;entryY=1;entryDx=0;entryDy=0;fontSize=12;startSize=8;endSize=8;" edge="1" parent="1" source="mVA5LgaerW7Mvd-htStF-1" target="mVA5LgaerW7Mvd-htStF-6">
          <mxGeometry relative="1" as="geometry" />
        </mxCell>
        <mxCell id="mVA5LgaerW7Mvd-htStF-13" style="edgeStyle=none;curved=1;rounded=0;orthogonalLoop=1;jettySize=auto;html=1;exitX=1;exitY=0.5;exitDx=0;exitDy=0;entryX=0;entryY=0.5;entryDx=0;entryDy=0;fontSize=12;startSize=8;endSize=8;" edge="1" parent="1" source="mVA5LgaerW7Mvd-htStF-1" target="mVA5LgaerW7Mvd-htStF-3">
          <mxGeometry relative="1" as="geometry" />
        </mxCell>
        <mxCell id="mVA5LgaerW7Mvd-htStF-1" value="PERSONA" style="rounded=0;whiteSpace=wrap;html=1;" vertex="1" parent="1">
          <mxGeometry x="-130" y="120" width="120" height="60" as="geometry" />
        </mxCell>
        <mxCell id="mVA5LgaerW7Mvd-htStF-2" value="HIJOS" style="rounded=0;whiteSpace=wrap;html=1;" vertex="1" parent="1">
          <mxGeometry x="210" y="120" width="120" height="60" as="geometry" />
        </mxCell>
        <mxCell id="mVA5LgaerW7Mvd-htStF-14" style="edgeStyle=none;curved=1;rounded=0;orthogonalLoop=1;jettySize=auto;html=1;exitX=1;exitY=0.5;exitDx=0;exitDy=0;entryX=0;entryY=0.5;entryDx=0;entryDy=0;fontSize=12;startSize=8;endSize=8;" edge="1" parent="1" source="mVA5LgaerW7Mvd-htStF-3" target="mVA5LgaerW7Mvd-htStF-2">
          <mxGeometry relative="1" as="geometry" />
        </mxCell>
        <mxCell id="mVA5LgaerW7Mvd-htStF-3" value="TIENE" style="rhombus;whiteSpace=wrap;html=1;" vertex="1" parent="1">
          <mxGeometry x="60" y="110" width="80" height="80" as="geometry" />
        </mxCell>
        <mxCell id="mVA5LgaerW7Mvd-htStF-4" value="Padres" style="ellipse;whiteSpace=wrap;html=1;" vertex="1" parent="1">
          <mxGeometry x="210" width="120" height="80" as="geometry" />
        </mxCell>
        <mxCell id="mVA5LgaerW7Mvd-htStF-5" value="Direcci칩n" style="ellipse;whiteSpace=wrap;html=1;" vertex="1" parent="1">
          <mxGeometry x="-10" width="120" height="80" as="geometry" />
        </mxCell>
        <mxCell id="mVA5LgaerW7Mvd-htStF-6" value="Nombre" style="ellipse;whiteSpace=wrap;html=1;" vertex="1" parent="1">
          <mxGeometry x="-230" width="120" height="80" as="geometry" />
        </mxCell>
        <mxCell id="mVA5LgaerW7Mvd-htStF-7" value="&lt;u&gt;DNI&lt;/u&gt;" style="ellipse;whiteSpace=wrap;html=1;" vertex="1" parent="1">
          <mxGeometry x="-230" y="220" width="120" height="80" as="geometry" />
        </mxCell>
        <mxCell id="mVA5LgaerW7Mvd-htStF-8" value="Tel칠fono" style="ellipse;whiteSpace=wrap;html=1;" vertex="1" parent="1">
          <mxGeometry x="-10" y="220" width="120" height="80" as="geometry" />
        </mxCell>
        <mxCell id="jLNay7fW6FHy344XrUIa-1" value="1,n" style="text;html=1;align=center;verticalAlign=middle;resizable=0;points=[];autosize=1;strokeColor=none;fillColor=none;fontSize=16;" vertex="1" parent="1">
          <mxGeometry x="160" y="120" width="50" height="30" as="geometry" />
        </mxCell>
      </root>
    </mxGraphModel>
  </diagram>
  <diagram id="RxYym-ANOgarjTvIZjdK" name="P치gina-5">
    <mxGraphModel dx="1772" dy="1241" grid="1" gridSize="10" guides="1" tooltips="1" connect="1" arrows="1" fold="1" page="0" pageScale="1" pageWidth="827" pageHeight="1169" math="0" shadow="0">
      <root>
        <mxCell id="0" />
        <mxCell id="1" parent="0" />
        <mxCell id="Pv5k1eLqslxzx-kk0c9y-8" style="edgeStyle=none;curved=1;rounded=0;orthogonalLoop=1;jettySize=auto;html=1;exitX=1;exitY=0.5;exitDx=0;exitDy=0;entryX=0;entryY=0.5;entryDx=0;entryDy=0;fontSize=12;startSize=8;endSize=8;" edge="1" parent="1" source="JaYdLNMooMkvXihk2yGl-1" target="JaYdLNMooMkvXihk2yGl-5">
          <mxGeometry relative="1" as="geometry" />
        </mxCell>
        <mxCell id="JaYdLNMooMkvXihk2yGl-1" value="L칈NEA" style="rounded=0;whiteSpace=wrap;html=1;" vertex="1" parent="1">
          <mxGeometry x="-150" y="-70" width="120" height="60" as="geometry" />
        </mxCell>
        <mxCell id="Pv5k1eLqslxzx-kk0c9y-4" style="edgeStyle=none;curved=1;rounded=0;orthogonalLoop=1;jettySize=auto;html=1;exitX=0;exitY=0.5;exitDx=0;exitDy=0;entryX=1;entryY=0.5;entryDx=0;entryDy=0;fontSize=12;startSize=8;endSize=8;" edge="1" parent="1" source="JaYdLNMooMkvXihk2yGl-2" target="JaYdLNMooMkvXihk2yGl-8">
          <mxGeometry relative="1" as="geometry" />
        </mxCell>
        <mxCell id="JaYdLNMooMkvXihk2yGl-2" value="COCHERA" style="rounded=0;whiteSpace=wrap;html=1;" vertex="1" parent="1">
          <mxGeometry x="190" y="160" width="120" height="60" as="geometry" />
        </mxCell>
        <mxCell id="JaYdLNMooMkvXihk2yGl-10" style="edgeStyle=none;curved=1;rounded=0;orthogonalLoop=1;jettySize=auto;html=1;exitX=0;exitY=1;exitDx=0;exitDy=0;entryX=1;entryY=0;entryDx=0;entryDy=0;fontSize=12;startSize=8;endSize=8;" edge="1" parent="1" source="JaYdLNMooMkvXihk2yGl-3" target="JaYdLNMooMkvXihk2yGl-9">
          <mxGeometry relative="1" as="geometry" />
        </mxCell>
        <mxCell id="Pv5k1eLqslxzx-kk0c9y-2" style="edgeStyle=none;curved=1;rounded=0;orthogonalLoop=1;jettySize=auto;html=1;exitX=0.5;exitY=1;exitDx=0;exitDy=0;entryX=0.5;entryY=0;entryDx=0;entryDy=0;fontSize=12;startSize=8;endSize=8;" edge="1" parent="1" source="JaYdLNMooMkvXihk2yGl-3" target="JaYdLNMooMkvXihk2yGl-7">
          <mxGeometry relative="1" as="geometry" />
        </mxCell>
        <mxCell id="JaYdLNMooMkvXihk2yGl-3" value="ESTACI칍N" style="rounded=0;whiteSpace=wrap;html=1;" vertex="1" parent="1">
          <mxGeometry x="190" y="-70" width="120" height="60" as="geometry" />
        </mxCell>
        <mxCell id="Pv5k1eLqslxzx-kk0c9y-6" style="edgeStyle=none;curved=1;rounded=0;orthogonalLoop=1;jettySize=auto;html=1;exitX=0.5;exitY=0;exitDx=0;exitDy=0;entryX=0.5;entryY=1;entryDx=0;entryDy=0;fontSize=12;startSize=8;endSize=8;" edge="1" parent="1" source="JaYdLNMooMkvXihk2yGl-4" target="JaYdLNMooMkvXihk2yGl-6">
          <mxGeometry relative="1" as="geometry" />
        </mxCell>
        <mxCell id="JaYdLNMooMkvXihk2yGl-4" value="TREN" style="rounded=0;whiteSpace=wrap;html=1;" vertex="1" parent="1">
          <mxGeometry x="-150" y="160" width="120" height="60" as="geometry" />
        </mxCell>
        <mxCell id="Pv5k1eLqslxzx-kk0c9y-1" style="edgeStyle=none;curved=1;rounded=0;orthogonalLoop=1;jettySize=auto;html=1;exitX=1;exitY=0.5;exitDx=0;exitDy=0;entryX=0;entryY=0.5;entryDx=0;entryDy=0;fontSize=12;startSize=8;endSize=8;" edge="1" parent="1" source="JaYdLNMooMkvXihk2yGl-5" target="JaYdLNMooMkvXihk2yGl-3">
          <mxGeometry relative="1" as="geometry" />
        </mxCell>
        <mxCell id="JaYdLNMooMkvXihk2yGl-5" value="TIENE" style="rhombus;whiteSpace=wrap;html=1;" vertex="1" parent="1">
          <mxGeometry x="40" y="-80" width="80" height="80" as="geometry" />
        </mxCell>
        <mxCell id="Pv5k1eLqslxzx-kk0c9y-7" style="edgeStyle=none;curved=1;rounded=0;orthogonalLoop=1;jettySize=auto;html=1;exitX=0.5;exitY=0;exitDx=0;exitDy=0;entryX=0.5;entryY=1;entryDx=0;entryDy=0;fontSize=12;startSize=8;endSize=8;" edge="1" parent="1" source="JaYdLNMooMkvXihk2yGl-6" target="JaYdLNMooMkvXihk2yGl-1">
          <mxGeometry relative="1" as="geometry" />
        </mxCell>
        <mxCell id="JaYdLNMooMkvXihk2yGl-6" value="ASIGNADO" style="rhombus;whiteSpace=wrap;html=1;" vertex="1" parent="1">
          <mxGeometry x="-130" y="40" width="80" height="80" as="geometry" />
        </mxCell>
        <mxCell id="Pv5k1eLqslxzx-kk0c9y-3" style="edgeStyle=none;curved=1;rounded=0;orthogonalLoop=1;jettySize=auto;html=1;exitX=0.5;exitY=1;exitDx=0;exitDy=0;entryX=0.5;entryY=0;entryDx=0;entryDy=0;fontSize=12;startSize=8;endSize=8;" edge="1" parent="1" source="JaYdLNMooMkvXihk2yGl-7" target="JaYdLNMooMkvXihk2yGl-2">
          <mxGeometry relative="1" as="geometry" />
        </mxCell>
        <mxCell id="JaYdLNMooMkvXihk2yGl-7" value="EST츼" style="rhombus;whiteSpace=wrap;html=1;" vertex="1" parent="1">
          <mxGeometry x="210" y="40" width="80" height="80" as="geometry" />
        </mxCell>
        <mxCell id="Pv5k1eLqslxzx-kk0c9y-5" style="edgeStyle=none;curved=1;rounded=0;orthogonalLoop=1;jettySize=auto;html=1;exitX=0;exitY=0.5;exitDx=0;exitDy=0;entryX=1;entryY=0.5;entryDx=0;entryDy=0;fontSize=12;startSize=8;endSize=8;" edge="1" parent="1" source="JaYdLNMooMkvXihk2yGl-8" target="JaYdLNMooMkvXihk2yGl-4">
          <mxGeometry relative="1" as="geometry" />
        </mxCell>
        <mxCell id="JaYdLNMooMkvXihk2yGl-8" value="GUARDA" style="rhombus;whiteSpace=wrap;html=1;" vertex="1" parent="1">
          <mxGeometry x="40" y="150" width="80" height="80" as="geometry" />
        </mxCell>
        <mxCell id="JaYdLNMooMkvXihk2yGl-9" value="N췈 Orden" style="ellipse;whiteSpace=wrap;html=1;" vertex="1" parent="1">
          <mxGeometry x="20" y="40" width="120" height="80" as="geometry" />
        </mxCell>
        <mxCell id="Pv5k1eLqslxzx-kk0c9y-10" value="1,1" style="text;html=1;align=center;verticalAlign=middle;resizable=0;points=[];autosize=1;strokeColor=none;fillColor=none;fontSize=16;" vertex="1" parent="1">
          <mxGeometry x="279" y="61" width="50" height="30" as="geometry" />
        </mxCell>
        <mxCell id="Pv5k1eLqslxzx-kk0c9y-12" value="1,1" style="text;html=1;align=center;verticalAlign=middle;resizable=0;points=[];autosize=1;strokeColor=none;fillColor=none;fontSize=16;" vertex="1" parent="1">
          <mxGeometry x="149" y="160" width="50" height="30" as="geometry" />
        </mxCell>
        <mxCell id="Pv5k1eLqslxzx-kk0c9y-13" value="1,n" style="text;html=1;align=center;verticalAlign=middle;resizable=0;points=[];autosize=1;strokeColor=none;fillColor=none;fontSize=16;" vertex="1" parent="1">
          <mxGeometry x="-41" y="161" width="50" height="30" as="geometry" />
        </mxCell>
        <mxCell id="Pv5k1eLqslxzx-kk0c9y-14" value="1,n" style="text;html=1;align=center;verticalAlign=middle;resizable=0;points=[];autosize=1;strokeColor=none;fillColor=none;fontSize=16;" vertex="1" parent="1">
          <mxGeometry x="59" y="231" width="50" height="30" as="geometry" />
        </mxCell>
        <mxCell id="Pv5k1eLqslxzx-kk0c9y-15" value="1,n" style="text;html=1;align=center;verticalAlign=middle;resizable=0;points=[];autosize=1;strokeColor=none;fillColor=none;fontSize=16;" vertex="1" parent="1">
          <mxGeometry x="-101" y="131" width="50" height="30" as="geometry" />
        </mxCell>
        <mxCell id="Pv5k1eLqslxzx-kk0c9y-16" value="1,1" style="text;html=1;align=center;verticalAlign=middle;resizable=0;points=[];autosize=1;strokeColor=none;fillColor=none;fontSize=16;" vertex="1" parent="1">
          <mxGeometry x="-100" y="-10" width="50" height="30" as="geometry" />
        </mxCell>
        <mxCell id="Pv5k1eLqslxzx-kk0c9y-17" value="1,n" style="text;html=1;align=center;verticalAlign=middle;resizable=0;points=[];autosize=1;strokeColor=none;fillColor=none;fontSize=16;" vertex="1" parent="1">
          <mxGeometry x="55" y="-110" width="50" height="30" as="geometry" />
        </mxCell>
      </root>
    </mxGraphModel>
  </diagram>
  <diagram id="IUNKk5ue2POxuzjMVZUw" name="P치gina-6">
    <mxGraphModel dx="1772" dy="841" grid="1" gridSize="10" guides="1" tooltips="1" connect="1" arrows="1" fold="1" page="0" pageScale="1" pageWidth="827" pageHeight="1169" math="0" shadow="0">
      <root>
        <mxCell id="0" />
        <mxCell id="1" parent="0" />
        <mxCell id="DyBcw2BbPi1EXBut8s72-1" value="DIVISI칍N" style="rounded=0;whiteSpace=wrap;html=1;" vertex="1" parent="1">
          <mxGeometry x="-280" y="50" width="120" height="60" as="geometry" />
        </mxCell>
        <mxCell id="DyBcw2BbPi1EXBut8s72-14" style="edgeStyle=none;curved=1;rounded=0;orthogonalLoop=1;jettySize=auto;html=1;exitX=0.5;exitY=1;exitDx=0;exitDy=0;entryX=0.5;entryY=0;entryDx=0;entryDy=0;fontSize=12;startSize=8;endSize=8;" edge="1" parent="1" source="DyBcw2BbPi1EXBut8s72-2" target="DyBcw2BbPi1EXBut8s72-7">
          <mxGeometry relative="1" as="geometry" />
        </mxCell>
        <mxCell id="DyBcw2BbPi1EXBut8s72-2" value="DEPARTAMENTOS" style="rounded=0;whiteSpace=wrap;html=1;" vertex="1" parent="1">
          <mxGeometry y="50" width="120" height="60" as="geometry" />
        </mxCell>
        <mxCell id="DyBcw2BbPi1EXBut8s72-9" style="edgeStyle=none;curved=1;rounded=0;orthogonalLoop=1;jettySize=auto;html=1;exitX=0;exitY=0.5;exitDx=0;exitDy=0;entryX=1;entryY=0.5;entryDx=0;entryDy=0;fontSize=12;startSize=8;endSize=8;" edge="1" parent="1" source="DyBcw2BbPi1EXBut8s72-3" target="DyBcw2BbPi1EXBut8s72-6">
          <mxGeometry relative="1" as="geometry">
            <Array as="points" />
          </mxGeometry>
        </mxCell>
        <mxCell id="DyBcw2BbPi1EXBut8s72-3" value="JEFE" style="rounded=0;whiteSpace=wrap;html=1;" vertex="1" parent="1">
          <mxGeometry x="260" y="50" width="120" height="60" as="geometry" />
        </mxCell>
        <mxCell id="DyBcw2BbPi1EXBut8s72-12" style="edgeStyle=none;curved=1;rounded=0;orthogonalLoop=1;jettySize=auto;html=1;exitX=1;exitY=0.5;exitDx=0;exitDy=0;entryX=0;entryY=0.5;entryDx=0;entryDy=0;fontSize=12;startSize=8;endSize=8;" edge="1" parent="1" source="DyBcw2BbPi1EXBut8s72-4" target="DyBcw2BbPi1EXBut8s72-8">
          <mxGeometry relative="1" as="geometry" />
        </mxCell>
        <mxCell id="DyBcw2BbPi1EXBut8s72-4" value="TRABAJADORES" style="rounded=0;whiteSpace=wrap;html=1;" vertex="1" parent="1">
          <mxGeometry x="130" y="150" width="120" height="60" as="geometry" />
        </mxCell>
        <mxCell id="DyBcw2BbPi1EXBut8s72-5" value="COMPUESTA" style="rhombus;whiteSpace=wrap;html=1;" vertex="1" parent="1">
          <mxGeometry x="-120" y="40" width="80" height="80" as="geometry" />
        </mxCell>
        <mxCell id="DyBcw2BbPi1EXBut8s72-10" style="edgeStyle=none;curved=1;rounded=0;orthogonalLoop=1;jettySize=auto;html=1;exitX=0;exitY=0.5;exitDx=0;exitDy=0;entryX=1;entryY=0.5;entryDx=0;entryDy=0;fontSize=12;startSize=8;endSize=8;" edge="1" parent="1" source="DyBcw2BbPi1EXBut8s72-6" target="DyBcw2BbPi1EXBut8s72-2">
          <mxGeometry relative="1" as="geometry" />
        </mxCell>
        <mxCell id="DyBcw2BbPi1EXBut8s72-6" value="DIRIGE" style="rhombus;whiteSpace=wrap;html=1;" vertex="1" parent="1">
          <mxGeometry x="150" y="40" width="80" height="80" as="geometry" />
        </mxCell>
        <mxCell id="DyBcw2BbPi1EXBut8s72-13" style="edgeStyle=none;curved=1;rounded=0;orthogonalLoop=1;jettySize=auto;html=1;exitX=1;exitY=0.5;exitDx=0;exitDy=0;entryX=0;entryY=0.5;entryDx=0;entryDy=0;fontSize=12;startSize=8;endSize=8;" edge="1" parent="1" source="DyBcw2BbPi1EXBut8s72-7" target="DyBcw2BbPi1EXBut8s72-4">
          <mxGeometry relative="1" as="geometry" />
        </mxCell>
        <mxCell id="DyBcw2BbPi1EXBut8s72-7" value="ASIGNA" style="rhombus;whiteSpace=wrap;html=1;" vertex="1" parent="1">
          <mxGeometry x="20" y="140" width="80" height="80" as="geometry" />
        </mxCell>
        <mxCell id="DyBcw2BbPi1EXBut8s72-11" style="edgeStyle=none;curved=1;rounded=0;orthogonalLoop=1;jettySize=auto;html=1;exitX=0.5;exitY=0;exitDx=0;exitDy=0;entryX=0.5;entryY=1;entryDx=0;entryDy=0;fontSize=12;startSize=8;endSize=8;" edge="1" parent="1" source="DyBcw2BbPi1EXBut8s72-8" target="DyBcw2BbPi1EXBut8s72-3">
          <mxGeometry relative="1" as="geometry" />
        </mxCell>
        <mxCell id="DyBcw2BbPi1EXBut8s72-8" value="TIENE" style="rhombus;whiteSpace=wrap;html=1;" vertex="1" parent="1">
          <mxGeometry x="280" y="140" width="80" height="80" as="geometry" />
        </mxCell>
        <mxCell id="DyBcw2BbPi1EXBut8s72-17" value="1,1" style="text;html=1;align=center;verticalAlign=middle;resizable=0;points=[];autosize=1;strokeColor=none;fillColor=none;fontSize=16;" vertex="1" parent="1">
          <mxGeometry x="-170" y="50" width="50" height="30" as="geometry" />
        </mxCell>
        <mxCell id="DyBcw2BbPi1EXBut8s72-18" value="1,n&amp;nbsp;" style="text;html=1;align=center;verticalAlign=middle;resizable=0;points=[];autosize=1;strokeColor=none;fillColor=none;fontSize=16;" vertex="1" parent="1">
          <mxGeometry x="-40" y="50" width="50" height="30" as="geometry" />
        </mxCell>
        <mxCell id="DyBcw2BbPi1EXBut8s72-19" value="1,n" style="text;html=1;align=center;verticalAlign=middle;resizable=0;points=[];autosize=1;strokeColor=none;fillColor=none;fontSize=16;" vertex="1" parent="1">
          <mxGeometry x="-111" y="11" width="50" height="30" as="geometry" />
        </mxCell>
        <mxCell id="DyBcw2BbPi1EXBut8s72-20" value="1,1" style="text;html=1;align=center;verticalAlign=middle;resizable=0;points=[];autosize=1;strokeColor=none;fillColor=none;fontSize=16;" vertex="1" parent="1">
          <mxGeometry x="20" y="110" width="50" height="30" as="geometry" />
        </mxCell>
        <mxCell id="DyBcw2BbPi1EXBut8s72-21" value="1,n" style="text;html=1;align=center;verticalAlign=middle;resizable=0;points=[];autosize=1;strokeColor=none;fillColor=none;fontSize=16;" vertex="1" parent="1">
          <mxGeometry x="89" y="181" width="50" height="30" as="geometry" />
        </mxCell>
        <mxCell id="DyBcw2BbPi1EXBut8s72-22" value="1,n" style="text;html=1;align=center;verticalAlign=middle;resizable=0;points=[];autosize=1;strokeColor=none;fillColor=none;fontSize=16;" vertex="1" parent="1">
          <mxGeometry x="239" y="181" width="50" height="30" as="geometry" />
        </mxCell>
        <mxCell id="DyBcw2BbPi1EXBut8s72-23" value="1,1" style="text;html=1;align=center;verticalAlign=middle;resizable=0;points=[];autosize=1;strokeColor=none;fillColor=none;fontSize=16;" vertex="1" parent="1">
          <mxGeometry x="269" y="110" width="50" height="30" as="geometry" />
        </mxCell>
        <mxCell id="DyBcw2BbPi1EXBut8s72-25" value="1,1" style="text;html=1;align=center;verticalAlign=middle;resizable=0;points=[];autosize=1;strokeColor=none;fillColor=none;fontSize=16;" vertex="1" parent="1">
          <mxGeometry x="165" width="50" height="30" as="geometry" />
        </mxCell>
        <mxCell id="DyBcw2BbPi1EXBut8s72-26" value="1,n" style="text;html=1;align=center;verticalAlign=middle;resizable=0;points=[];autosize=1;strokeColor=none;fillColor=none;fontSize=16;" vertex="1" parent="1">
          <mxGeometry x="349" y="171" width="50" height="30" as="geometry" />
        </mxCell>
        <mxCell id="DyBcw2BbPi1EXBut8s72-27" value="1,n" style="text;html=1;align=center;verticalAlign=middle;resizable=0;points=[];autosize=1;strokeColor=none;fillColor=none;fontSize=16;" vertex="1" parent="1">
          <mxGeometry x="-30" y="161" width="50" height="30" as="geometry" />
        </mxCell>
        <mxCell id="DyBcw2BbPi1EXBut8s72-29" value="" style="endArrow=none;html=1;rounded=0;fontSize=12;startSize=8;endSize=8;curved=1;entryX=0;entryY=0.5;entryDx=0;entryDy=0;exitX=1;exitY=0.5;exitDx=0;exitDy=0;" edge="1" parent="1" source="DyBcw2BbPi1EXBut8s72-1" target="DyBcw2BbPi1EXBut8s72-5">
          <mxGeometry width="50" height="50" relative="1" as="geometry">
            <mxPoint x="-161" y="130" as="sourcePoint" />
            <mxPoint x="-111" y="80" as="targetPoint" />
          </mxGeometry>
        </mxCell>
        <mxCell id="DyBcw2BbPi1EXBut8s72-30" value="" style="endArrow=none;html=1;rounded=0;fontSize=12;startSize=8;endSize=8;curved=1;entryX=0;entryY=0.5;entryDx=0;entryDy=0;exitX=1;exitY=0.5;exitDx=0;exitDy=0;" edge="1" parent="1" source="DyBcw2BbPi1EXBut8s72-5" target="DyBcw2BbPi1EXBut8s72-2">
          <mxGeometry width="50" height="50" relative="1" as="geometry">
            <mxPoint x="-140" y="260" as="sourcePoint" />
            <mxPoint x="-90" y="210" as="targetPoint" />
          </mxGeometry>
        </mxCell>
      </root>
    </mxGraphModel>
  </diagram>
  <diagram id="lHTzLqBtqM7n1QWD8aQp" name="P치gina-7">
    <mxGraphModel dx="1772" dy="1241" grid="1" gridSize="10" guides="1" tooltips="1" connect="1" arrows="1" fold="1" page="0" pageScale="1" pageWidth="827" pageHeight="1169" math="0" shadow="0">
      <root>
        <mxCell id="0" />
        <mxCell id="1" parent="0" />
        <mxCell id="SdOz1aIDDpqtjvxrdXeB-16" style="edgeStyle=none;curved=1;rounded=0;orthogonalLoop=1;jettySize=auto;html=1;exitX=0;exitY=0;exitDx=0;exitDy=0;entryX=1;entryY=1;entryDx=0;entryDy=0;fontSize=12;startSize=8;endSize=8;" edge="1" parent="1" source="SdOz1aIDDpqtjvxrdXeB-1" target="SdOz1aIDDpqtjvxrdXeB-8">
          <mxGeometry relative="1" as="geometry" />
        </mxCell>
        <mxCell id="SdOz1aIDDpqtjvxrdXeB-17" style="edgeStyle=none;curved=1;rounded=0;orthogonalLoop=1;jettySize=auto;html=1;exitX=0;exitY=0.5;exitDx=0;exitDy=0;entryX=1;entryY=0.5;entryDx=0;entryDy=0;fontSize=12;startSize=8;endSize=8;" edge="1" parent="1" source="SdOz1aIDDpqtjvxrdXeB-1" target="SdOz1aIDDpqtjvxrdXeB-9">
          <mxGeometry relative="1" as="geometry" />
        </mxCell>
        <mxCell id="SdOz1aIDDpqtjvxrdXeB-18" style="edgeStyle=none;curved=1;rounded=0;orthogonalLoop=1;jettySize=auto;html=1;exitX=0.5;exitY=0;exitDx=0;exitDy=0;entryX=0.5;entryY=1;entryDx=0;entryDy=0;fontSize=12;startSize=8;endSize=8;" edge="1" parent="1" source="SdOz1aIDDpqtjvxrdXeB-1" target="SdOz1aIDDpqtjvxrdXeB-10">
          <mxGeometry relative="1" as="geometry" />
        </mxCell>
        <mxCell id="SdOz1aIDDpqtjvxrdXeB-19" style="edgeStyle=none;curved=1;rounded=0;orthogonalLoop=1;jettySize=auto;html=1;exitX=1;exitY=0;exitDx=0;exitDy=0;entryX=0;entryY=1;entryDx=0;entryDy=0;fontSize=12;startSize=8;endSize=8;" edge="1" parent="1" source="SdOz1aIDDpqtjvxrdXeB-1" target="SdOz1aIDDpqtjvxrdXeB-6">
          <mxGeometry relative="1" as="geometry" />
        </mxCell>
        <mxCell id="SdOz1aIDDpqtjvxrdXeB-20" style="edgeStyle=none;curved=1;rounded=0;orthogonalLoop=1;jettySize=auto;html=1;exitX=1;exitY=0.5;exitDx=0;exitDy=0;entryX=0;entryY=0.5;entryDx=0;entryDy=0;fontSize=12;startSize=8;endSize=8;" edge="1" parent="1" source="SdOz1aIDDpqtjvxrdXeB-1" target="SdOz1aIDDpqtjvxrdXeB-7">
          <mxGeometry relative="1" as="geometry" />
        </mxCell>
        <mxCell id="SdOz1aIDDpqtjvxrdXeB-1" value="FACTURA" style="rounded=0;whiteSpace=wrap;html=1;" vertex="1" parent="1">
          <mxGeometry x="80" y="-80" width="120" height="60" as="geometry" />
        </mxCell>
        <mxCell id="SdOz1aIDDpqtjvxrdXeB-2" value="FERRETER칈A" style="rounded=0;whiteSpace=wrap;html=1;" vertex="1" parent="1">
          <mxGeometry x="-190" y="360" width="120" height="60" as="geometry" />
        </mxCell>
        <mxCell id="SdOz1aIDDpqtjvxrdXeB-3" value="PRODUCTOS" style="rounded=0;whiteSpace=wrap;html=1;" vertex="1" parent="1">
          <mxGeometry x="80" y="360" width="120" height="60" as="geometry" />
        </mxCell>
        <mxCell id="SdOz1aIDDpqtjvxrdXeB-4" value="CLIENTE" style="rounded=0;whiteSpace=wrap;html=1;" vertex="1" parent="1">
          <mxGeometry x="80" y="140" width="120" height="60" as="geometry" />
        </mxCell>
        <mxCell id="SdOz1aIDDpqtjvxrdXeB-29" style="edgeStyle=none;curved=1;rounded=0;orthogonalLoop=1;jettySize=auto;html=1;exitX=0.5;exitY=0;exitDx=0;exitDy=0;entryX=0.5;entryY=1;entryDx=0;entryDy=0;fontSize=12;startSize=8;endSize=8;" edge="1" parent="1" source="SdOz1aIDDpqtjvxrdXeB-5" target="SdOz1aIDDpqtjvxrdXeB-11">
          <mxGeometry relative="1" as="geometry" />
        </mxCell>
        <mxCell id="SdOz1aIDDpqtjvxrdXeB-5" value="FABRICANTES" style="rounded=0;whiteSpace=wrap;html=1;" vertex="1" parent="1">
          <mxGeometry x="360" y="360" width="120" height="60" as="geometry" />
        </mxCell>
        <mxCell id="SdOz1aIDDpqtjvxrdXeB-6" value="Fecha" style="ellipse;whiteSpace=wrap;html=1;" vertex="1" parent="1">
          <mxGeometry x="240" y="-200" width="120" height="80" as="geometry" />
        </mxCell>
        <mxCell id="SdOz1aIDDpqtjvxrdXeB-7" value="Impuestos" style="ellipse;whiteSpace=wrap;html=1;" vertex="1" parent="1">
          <mxGeometry x="240" y="-90" width="120" height="80" as="geometry" />
        </mxCell>
        <mxCell id="SdOz1aIDDpqtjvxrdXeB-8" value="Cantidad" style="ellipse;whiteSpace=wrap;html=1;" vertex="1" parent="1">
          <mxGeometry x="-80" y="-200" width="120" height="80" as="geometry" />
        </mxCell>
        <mxCell id="SdOz1aIDDpqtjvxrdXeB-9" value="Precio unitario" style="ellipse;whiteSpace=wrap;html=1;" vertex="1" parent="1">
          <mxGeometry x="-80" y="-90" width="120" height="80" as="geometry" />
        </mxCell>
        <mxCell id="SdOz1aIDDpqtjvxrdXeB-10" value="Productos&lt;div&gt;comprados&lt;/div&gt;" style="ellipse;whiteSpace=wrap;html=1;" vertex="1" parent="1">
          <mxGeometry x="80" y="-200" width="120" height="80" as="geometry" />
        </mxCell>
        <mxCell id="SdOz1aIDDpqtjvxrdXeB-11" value="Precio" style="ellipse;whiteSpace=wrap;html=1;" vertex="1" parent="1">
          <mxGeometry x="360" y="240" width="120" height="80" as="geometry" />
        </mxCell>
        <mxCell id="SdOz1aIDDpqtjvxrdXeB-12" value="CREAR" style="rhombus;whiteSpace=wrap;html=1;" vertex="1" parent="1">
          <mxGeometry x="240" y="350" width="80" height="80" as="geometry" />
        </mxCell>
        <mxCell id="SdOz1aIDDpqtjvxrdXeB-13" value="COMPRAR" style="rhombus;whiteSpace=wrap;html=1;" vertex="1" parent="1">
          <mxGeometry x="100" y="240" width="80" height="80" as="geometry" />
        </mxCell>
        <mxCell id="SdOz1aIDDpqtjvxrdXeB-14" value="GENERAR" style="rhombus;whiteSpace=wrap;html=1;" vertex="1" parent="1">
          <mxGeometry x="100" y="20" width="80" height="80" as="geometry" />
        </mxCell>
        <mxCell id="SdOz1aIDDpqtjvxrdXeB-21" value="" style="endArrow=none;html=1;rounded=0;fontSize=12;startSize=8;endSize=8;curved=1;entryX=0.5;entryY=1;entryDx=0;entryDy=0;exitX=0.5;exitY=0;exitDx=0;exitDy=0;" edge="1" parent="1" source="SdOz1aIDDpqtjvxrdXeB-14" target="SdOz1aIDDpqtjvxrdXeB-1">
          <mxGeometry width="50" height="50" relative="1" as="geometry">
            <mxPoint x="70" y="50" as="sourcePoint" />
            <mxPoint x="120" as="targetPoint" />
          </mxGeometry>
        </mxCell>
        <mxCell id="SdOz1aIDDpqtjvxrdXeB-22" value="" style="endArrow=none;html=1;rounded=0;fontSize=12;startSize=8;endSize=8;curved=1;entryX=0.5;entryY=1;entryDx=0;entryDy=0;exitX=0.5;exitY=0;exitDx=0;exitDy=0;" edge="1" parent="1" source="SdOz1aIDDpqtjvxrdXeB-4" target="SdOz1aIDDpqtjvxrdXeB-14">
          <mxGeometry width="50" height="50" relative="1" as="geometry">
            <mxPoint x="-50" y="140" as="sourcePoint" />
            <mxPoint y="90" as="targetPoint" />
          </mxGeometry>
        </mxCell>
        <mxCell id="SdOz1aIDDpqtjvxrdXeB-23" value="" style="endArrow=none;html=1;rounded=0;fontSize=12;startSize=8;endSize=8;curved=1;entryX=0.5;entryY=1;entryDx=0;entryDy=0;exitX=0.5;exitY=0;exitDx=0;exitDy=0;" edge="1" parent="1" source="SdOz1aIDDpqtjvxrdXeB-3" target="SdOz1aIDDpqtjvxrdXeB-13">
          <mxGeometry width="50" height="50" relative="1" as="geometry">
            <mxPoint x="-60" y="280" as="sourcePoint" />
            <mxPoint x="-10" y="230" as="targetPoint" />
          </mxGeometry>
        </mxCell>
        <mxCell id="SdOz1aIDDpqtjvxrdXeB-24" value="" style="endArrow=none;html=1;rounded=0;fontSize=12;startSize=8;endSize=8;curved=1;entryX=0.5;entryY=1;entryDx=0;entryDy=0;exitX=0.5;exitY=0;exitDx=0;exitDy=0;" edge="1" parent="1" source="SdOz1aIDDpqtjvxrdXeB-13" target="SdOz1aIDDpqtjvxrdXeB-4">
          <mxGeometry width="50" height="50" relative="1" as="geometry">
            <mxPoint x="-40" y="230" as="sourcePoint" />
            <mxPoint x="10" y="180" as="targetPoint" />
          </mxGeometry>
        </mxCell>
        <mxCell id="SdOz1aIDDpqtjvxrdXeB-25" value="" style="endArrow=none;html=1;rounded=0;fontSize=12;startSize=8;endSize=8;curved=1;entryX=0;entryY=0.5;entryDx=0;entryDy=0;" edge="1" parent="1" source="SdOz1aIDDpqtjvxrdXeB-15" target="SdOz1aIDDpqtjvxrdXeB-3">
          <mxGeometry width="50" height="50" relative="1" as="geometry">
            <mxPoint x="-240" y="350" as="sourcePoint" />
            <mxPoint x="-190" y="300" as="targetPoint" />
          </mxGeometry>
        </mxCell>
        <mxCell id="SdOz1aIDDpqtjvxrdXeB-26" value="" style="endArrow=none;html=1;rounded=0;fontSize=12;startSize=8;endSize=8;curved=1;entryX=0;entryY=0.5;entryDx=0;entryDy=0;exitX=1;exitY=0.5;exitDx=0;exitDy=0;" edge="1" parent="1" source="SdOz1aIDDpqtjvxrdXeB-2" target="SdOz1aIDDpqtjvxrdXeB-15">
          <mxGeometry width="50" height="50" relative="1" as="geometry">
            <mxPoint x="-80" y="420" as="sourcePoint" />
            <mxPoint x="-30" y="370" as="targetPoint" />
          </mxGeometry>
        </mxCell>
        <mxCell id="SdOz1aIDDpqtjvxrdXeB-27" value="" style="endArrow=none;html=1;rounded=0;fontSize=12;startSize=8;endSize=8;curved=1;" edge="1" parent="1" source="SdOz1aIDDpqtjvxrdXeB-12">
          <mxGeometry width="50" height="50" relative="1" as="geometry">
            <mxPoint x="240" y="390" as="sourcePoint" />
            <mxPoint x="200" y="390" as="targetPoint" />
          </mxGeometry>
        </mxCell>
        <mxCell id="SdOz1aIDDpqtjvxrdXeB-15" value="VENDER" style="rhombus;whiteSpace=wrap;html=1;" vertex="1" parent="1">
          <mxGeometry x="-40" y="350" width="80" height="80" as="geometry" />
        </mxCell>
        <mxCell id="SdOz1aIDDpqtjvxrdXeB-28" value="" style="endArrow=none;html=1;rounded=0;fontSize=12;startSize=8;endSize=8;curved=1;entryX=0;entryY=0.5;entryDx=0;entryDy=0;exitX=1;exitY=0.5;exitDx=0;exitDy=0;" edge="1" parent="1" source="SdOz1aIDDpqtjvxrdXeB-12" target="SdOz1aIDDpqtjvxrdXeB-5">
          <mxGeometry width="50" height="50" relative="1" as="geometry">
            <mxPoint x="310" y="450" as="sourcePoint" />
            <mxPoint x="360" y="400" as="targetPoint" />
          </mxGeometry>
        </mxCell>
        <mxCell id="SdOz1aIDDpqtjvxrdXeB-30" value="1,n" style="text;html=1;align=center;verticalAlign=middle;resizable=0;points=[];autosize=1;strokeColor=none;fillColor=none;fontSize=16;" vertex="1" parent="1">
          <mxGeometry x="255" y="320" width="50" height="30" as="geometry" />
        </mxCell>
        <mxCell id="SdOz1aIDDpqtjvxrdXeB-31" value="1,1" style="text;html=1;align=center;verticalAlign=middle;resizable=0;points=[];autosize=1;strokeColor=none;fillColor=none;fontSize=16;" vertex="1" parent="1">
          <mxGeometry x="-81" y="361" width="50" height="30" as="geometry" />
        </mxCell>
        <mxCell id="SdOz1aIDDpqtjvxrdXeB-32" value="1,n" style="text;html=1;align=center;verticalAlign=middle;resizable=0;points=[];autosize=1;strokeColor=none;fillColor=none;fontSize=16;" vertex="1" parent="1">
          <mxGeometry x="40" y="361" width="50" height="30" as="geometry" />
        </mxCell>
        <mxCell id="SdOz1aIDDpqtjvxrdXeB-33" value="1,n" style="text;html=1;align=center;verticalAlign=middle;resizable=0;points=[];autosize=1;strokeColor=none;fillColor=none;fontSize=16;" vertex="1" parent="1">
          <mxGeometry x="170" y="266" width="50" height="30" as="geometry" />
        </mxCell>
        <mxCell id="SdOz1aIDDpqtjvxrdXeB-34" value="1,1" style="text;html=1;align=center;verticalAlign=middle;resizable=0;points=[];autosize=1;strokeColor=none;fillColor=none;fontSize=16;" vertex="1" parent="1">
          <mxGeometry x="129" y="111" width="50" height="30" as="geometry" />
        </mxCell>
        <mxCell id="SdOz1aIDDpqtjvxrdXeB-35" value="1,n" style="text;html=1;align=center;verticalAlign=middle;resizable=0;points=[];autosize=1;strokeColor=none;fillColor=none;fontSize=16;" vertex="1" parent="1">
          <mxGeometry x="129" y="-19" width="50" height="30" as="geometry" />
        </mxCell>
      </root>
    </mxGraphModel>
  </diagram>
</mxfile>
